<?xml version="1.0" standalone="no"?>
<!DOCTYPE svg PUBLIC "-//W3C//DTD SVG 20010904//EN"
 "http://www.w3.org/TR/2001/REC-SVG-20010904/DTD/svg10.dtd">
<svg version="1.0" xmlns="http://www.w3.org/2000/svg"
 width="50.000000pt" height="50.000000pt" viewBox="0 0 50.000000 50.000000"
 preserveAspectRatio="xMidYMid meet">

<g transform="translate(0.000000,50.000000) scale(0.100000,-0.100000)"
fill="#000000" stroke="none">
<path d="M144 490 c-29 -11 -61 -54 -69 -91 -9 -39 2 -49 23 -23 21 26 54 44
79 43 10 0 4 -5 -12 -10 -17 -4 -44 -22 -60 -39 -26 -27 -30 -39 -30 -88 0
-54 19 -122 34 -122 4 0 13 23 20 51 14 54 61 112 100 122 25 6 27 -13 10 -95
-15 -71 -41 -119 -84 -156 -50 -45 -80 -51 -137 -27 -34 14 -18 -11 18 -28 61
-29 139 -32 225 -8 102 29 125 27 222 -14 9 -4 17 -3 17 2 0 22 -85 48 -153
47 -58 0 -67 2 -62 15 13 33 26 109 33 194 l7 88 35 -23 c42 -28 70 -80 70
-130 0 -47 8 -48 37 -5 63 92 28 176 -87 207 -25 7 -39 15 -32 17 23 8 79 -7
106 -28 l26 -20 0 21 c0 35 -29 86 -56 99 -34 15 -63 14 -98 -4 -27 -14 -34
-14 -68 0 -42 16 -81 18 -114 5z m109 -29 c36 -18 38 -18 74 0 48 24 78 24
103 -1 25 -25 26 -45 3 -35 -43 17 -83 17 -108 1 -31 -20 -32 -36 -2 -36 44 0
101 -22 129 -50 30 -31 36 -69 15 -107 -12 -22 -13 -20 -30 26 -30 86 -106
127 -188 102 -50 -15 -108 -66 -127 -111 -13 -31 -16 -33 -23 -15 -11 30 -11
71 3 99 13 29 81 66 121 66 34 0 35 17 1 30 -35 14 -64 12 -96 -4 -37 -20 -35
-4 3 28 36 31 71 33 122 7z m44 -200 c-8 -113 -24 -185 -46 -213 -14 -17 -32
-22 -82 -26 l-64 -4 41 30 c72 53 108 126 121 243 4 43 10 59 21 59 13 0 14
-14 9 -89z"/>
</g>
</svg>
