<?xml version="1.0" standalone="no"?>
<!DOCTYPE svg PUBLIC "-//W3C//DTD SVG 20010904//EN"
 "http://www.w3.org/TR/2001/REC-SVG-20010904/DTD/svg10.dtd">
<svg version="1.0" xmlns="http://www.w3.org/2000/svg"
 width="64.000000pt" height="64.000000pt" viewBox="0 0 64.000000 64.000000"
 preserveAspectRatio="xMidYMid meet">

<g transform="translate(0.000000,64.000000) scale(0.100000,-0.100000)"
fill="#000000" stroke="none">
<path d="M282 588 c-35 -22 -72 -21 -130 3 -32 13 -35 13 -57 -13 l-23 -27 19
-61 c20 -65 19 -70 -16 -190 -33 -110 10 -181 154 -249 l91 -43 88 42 c92 44
126 69 147 110 27 53 26 94 -1 179 l-26 81 20 65 c20 65 20 65 0 90 -22 28
-53 32 -82 10 -27 -20 -69 -19 -114 4 -38 19 -38 19 -70 -1z m-118 -23 c26
-20 77 -19 121 2 33 16 37 16 64 0 37 -22 81 -22 125 0 33 15 37 15 55 -1 21
-19 18 -54 -5 -63 -20 -7 -11 -106 16 -187 18 -53 20 -69 11 -104 -18 -63 -56
-101 -148 -143 l-83 -38 -83 38 c-92 42 -130 80 -148 143 -9 35 -7 51 11 104
24 72 36 184 20 184 -20 0 -29 44 -12 63 18 21 31 21 56 2z"/>
<path d="M160 480 c0 -11 5 -20 10 -20 6 0 10 9 10 20 0 11 -4 20 -10 20 -5 0
-10 -9 -10 -20z"/>
<path d="M210 480 c0 -11 5 -20 10 -20 6 0 10 9 10 20 0 11 -4 20 -10 20 -5 0
-10 -9 -10 -20z"/>
<path d="M260 480 c0 -11 5 -20 10 -20 6 0 10 9 10 20 0 11 -4 20 -10 20 -5 0
-10 -9 -10 -20z"/>
<path d="M310 480 c0 -11 5 -20 10 -20 6 0 10 9 10 20 0 11 -4 20 -10 20 -5 0
-10 -9 -10 -20z"/>
<path d="M360 480 c0 -11 5 -20 10 -20 6 0 10 9 10 20 0 11 -4 20 -10 20 -5 0
-10 -9 -10 -20z"/>
<path d="M410 480 c0 -11 5 -20 10 -20 6 0 10 9 10 20 0 11 -4 20 -10 20 -5 0
-10 -9 -10 -20z"/>
<path d="M460 480 c0 -11 5 -20 10 -20 6 0 10 9 10 20 0 11 -4 20 -10 20 -5 0
-10 -9 -10 -20z"/>
<path d="M297 360 c-14 -38 -18 -40 -56 -40 -23 0 -41 -4 -41 -8 0 -5 13 -21
29 -36 25 -24 28 -31 20 -64 -4 -20 -6 -38 -4 -41 3 -2 21 4 40 15 34 18 36
18 70 0 19 -11 37 -17 40 -14 3 2 0 20 -5 38 -9 31 -7 37 20 65 35 36 31 45
-17 45 -29 0 -36 5 -48 34 -21 50 -30 51 -48 6z m38 -32 c6 -14 22 -25 39 -28
l28 -5 -21 -19 c-17 -16 -20 -26 -15 -50 l6 -30 -26 18 c-26 16 -29 16 -53 1
l-26 -17 7 27 c5 21 2 33 -15 51 l-22 24 26 0 c20 0 31 7 39 25 14 31 20 31
33 3z"/>
</g>
</svg>
