<?xml version="1.0" standalone="no"?>
<!DOCTYPE svg PUBLIC "-//W3C//DTD SVG 20010904//EN"
 "http://www.w3.org/TR/2001/REC-SVG-20010904/DTD/svg10.dtd">
<svg version="1.0" xmlns="http://www.w3.org/2000/svg"
 width="32.000000pt" height="32.000000pt" viewBox="0 0 32.000000 32.000000"
 preserveAspectRatio="xMidYMid meet">

<g transform="translate(0.000000,32.000000) scale(0.100000,-0.100000)"
fill="#000000" stroke="none">
<path d="M176 251 c-21 -22 -27 -36 -22 -53 5 -19 -4 -32 -55 -78 -52 -48 -59
-57 -46 -68 12 -10 23 -3 66 47 45 52 56 59 79 55 21 -4 33 1 56 25 l30 31
-34 35 c-19 19 -37 35 -40 35 -3 0 -19 -13 -34 -29z m44 -9 c0 -14 -39 -46
-47 -39 -3 4 2 16 12 27 19 21 35 26 35 12z m30 -30 c0 -14 -39 -46 -47 -39
-3 4 2 16 12 27 19 21 35 26 35 12z"/>
<path d="M44 244 c-5 -20 0 -32 26 -59 18 -19 37 -32 42 -28 6 3 -5 20 -23 39
-36 37 -32 60 4 26 38 -36 44 -25 7 13 -41 42 -48 43 -56 9z"/>
<path d="M195 120 c-4 -6 -13 -9 -21 -6 -20 8 -26 -10 -9 -24 12 -10 18 -10
30 0 13 11 21 8 45 -15 17 -16 30 -24 30 -19 0 19 -67 76 -75 64z"/>
</g>
</svg>
