<?xml version="1.0" standalone="no"?>
<!DOCTYPE svg PUBLIC "-//W3C//DTD SVG 20010904//EN"
 "http://www.w3.org/TR/2001/REC-SVG-20010904/DTD/svg10.dtd">
<svg version="1.0" xmlns="http://www.w3.org/2000/svg"
 width="50.000000pt" height="50.000000pt" viewBox="0 0 50.000000 50.000000"
 preserveAspectRatio="xMidYMid meet">

<g transform="translate(0.000000,50.000000) scale(0.100000,-0.100000)"
fill="#000000" stroke="none">
<path d="M138 423 c-89 -47 -108 -61 -108 -80 0 -13 3 -23 8 -23 18 0 32 -60
32 -136 0 -78 -1 -83 -22 -86 -18 -2 -23 -10 -23 -33 l0 -30 225 0 225 0 0 30
c0 23 -5 31 -22 33 -22 3 -23 8 -23 86 0 76 14 136 33 136 4 0 7 11 7 23 0 20
-17 33 -109 80 -60 32 -110 57 -112 57 -2 0 -52 -26 -111 -57z m216 -18 c53
-27 96 -53 96 -57 0 -5 -90 -8 -200 -8 -110 0 -200 3 -200 8 0 8 191 111 201
108 4 0 50 -23 103 -51z m-204 -95 c0 -5 -18 -10 -40 -10 -22 0 -40 5 -40 10
0 6 18 10 40 10 22 0 40 -4 40 -10z m48 -17 c6 -15 12 -64 12 -110 l0 -83 -30
0 -30 0 0 83 c0 72 14 137 30 137 3 0 11 -12 18 -27z m92 17 c0 -5 -18 -10
-40 -10 -22 0 -40 5 -40 10 0 6 18 10 40 10 22 0 40 -4 40 -10z m48 -17 c6
-15 12 -64 12 -110 l0 -83 -30 0 -30 0 0 83 c0 72 14 137 30 137 3 0 11 -12
18 -27z m92 17 c0 -5 -18 -10 -40 -10 -22 0 -40 5 -40 10 0 6 18 10 40 10 22
0 40 -4 40 -10z m-300 -120 c0 -83 -1 -90 -20 -90 -19 0 -20 7 -20 90 0 83 1
90 20 90 19 0 20 -7 20 -90z m140 0 c0 -83 -1 -90 -20 -90 -19 0 -20 7 -20 90
0 83 1 90 20 90 19 0 20 -7 20 -90z m140 0 c0 -83 -1 -90 -20 -90 -19 0 -20 7
-20 90 0 83 1 90 20 90 19 0 20 -7 20 -90z m50 -125 c0 -13 -30 -15 -210 -15
-180 0 -210 2 -210 15 0 13 30 15 210 15 180 0 210 -2 210 -15z"/>
</g>
</svg>
