<?xml version="1.0" standalone="no"?>
<!DOCTYPE svg PUBLIC "-//W3C//DTD SVG 20010904//EN"
 "http://www.w3.org/TR/2001/REC-SVG-20010904/DTD/svg10.dtd">
<svg version="1.0" xmlns="http://www.w3.org/2000/svg"
 width="26.000000pt" height="26.000000pt" viewBox="0 0 26.000000 26.000000"
 preserveAspectRatio="xMidYMid meet">

<g transform="translate(0.000000,26.000000) scale(0.100000,-0.100000)"
fill="#000000" stroke="none">
<path d="M44 236 c-15 -22 -19 -82 -6 -90 4 -2 6 12 4 32 -2 24 3 44 13 57 16
20 16 20 6 -2 -13 -26 -14 -73 -2 -91 7 -12 14 -11 40 2 24 13 31 23 31 47 0
17 -5 39 -10 50 -14 24 -57 21 -76 -5z"/>
<path d="M90 127 c-16 -9 -24 -20 -22 -33 14 -85 24 -97 74 -92 40 4 45 29 8
38 -24 6 -24 6 8 13 45 9 40 25 -10 30 l-43 4 47 1 c52 2 70 18 43 39 -24 17
-72 17 -105 0z m88 -14 c2 -9 -8 -13 -32 -13 -34 0 -52 11 -39 24 11 11 66 2
71 -11z m-83 -13 c3 -5 2 -10 -4 -10 -5 0 -13 5 -16 10 -3 6 -2 10 4 10 5 0
13 -4 16 -10z"/>
</g>
</svg>
