<?xml version="1.0" standalone="no"?>
<!DOCTYPE svg PUBLIC "-//W3C//DTD SVG 20010904//EN"
 "http://www.w3.org/TR/2001/REC-SVG-20010904/DTD/svg10.dtd">
<svg version="1.0" xmlns="http://www.w3.org/2000/svg"
 width="24.000000pt" height="24.000000pt" viewBox="0 0 24.000000 24.000000"
 preserveAspectRatio="xMidYMid meet">

<g transform="translate(0.000000,24.000000) scale(0.100000,-0.100000)"
fill="#000000" stroke="none">
<path d="M51 192 c-19 -9 -37 -23 -39 -30 -3 -9 9 -7 37 7 22 12 54 21 71 21
17 0 49 -9 71 -21 28 -14 40 -16 37 -7 -6 20 -69 48 -108 48 -19 0 -50 -8 -69
-18z"/>
<path d="M74 151 c-33 -14 -44 -36 -13 -26 30 10 87 10 119 0 23 -7 24 -6 9 9
-19 21 -85 30 -115 17z"/>
<path d="M87 104 c-14 -15 -6 -19 33 -19 23 0 39 4 37 10 -4 12 -60 19 -70 9z"/>
</g>
</svg>
